<?xml version="1.0" encoding="utf-8"?>
<svg version="1.1" xmlns:xlink="http://www.w3.org/1999/xlink" width="55px" height="45px" xmlns="http://www.w3.org/2000/svg">
  <g transform="matrix(1 0 0 1 -208 -2363 )">
    <path d="M 48.50888324873096 7.101562500000001  C 50.672588832487314 6.867187499999999  52.83629441624365 6.281249999999993  55 5.343750000000001  C 53.44120135363791 7.640624999999996  51.55668358714044 9.597656249999998  49.34644670050761 11.214843750000002  C 49.36971235194586 11.542968749999998  49.381345177664976 12.035156249999995  49.381345177664976 12.691406249999998  C 49.381345177664976 15.738281249999995  48.939297800338416 18.779296874999996  48.055203045685275 21.814453125  C 47.171108291032155 24.849609374999996  45.82751692047378 27.76171875  44.02442893401015 30.550781250000004  C 42.22134094754654 33.33984375  40.075084602368875 35.806640625  37.58565989847716 37.951171875  C 35.09623519458545 40.095703125  32.094966159052454 41.806640625  28.581852791878177 43.083984375  C 25.068739424703892 44.36132812499999  21.31133671742809 45  17.309644670050762 45  C 11.00465313028765 45  5.2347715736040605 43.30078125  0 39.90234375  C 0.8142978003384098 39.99609375000001  1.7216582064297803 40.04296875  2.722081218274112 40.04296875  C 7.956852791878175 40.04296875  12.621615905245347 38.42578125  16.716370558375637 35.19140625  C 14.273477157360407 35.14453124999999  12.086505922165822 34.38867187499999  10.155456852791879 32.923828125  C 8.224407783417936 31.458984374999996  6.898265651438241 29.589843749999996  6.177030456852792 27.31640625  C 6.944796954314721 27.43359375  7.654399323181051 27.4921875  8.305837563451776 27.4921875  C 9.306260575296108 27.4921875  10.295050761421319 27.36328125  11.272208121827411 27.105468749999996  C 8.666455160744501 26.56640625  6.508565989847717 25.259765624999996  4.798540609137056 23.185546875  C 3.088515228426396 21.111328125  2.2335025380710665 18.703125  2.233502538071066 15.960937500000002  L 2.233502538071066 15.8203125  C 3.815566835871405 16.7109375  5.513959390862944 17.191406249999996  7.3286802030456855 17.261718749999996  C 5.793147208121828 16.230468749999996  4.571700507614213 14.882812499999998  3.6643401015228427 13.218749999999998  C 2.756979695431472 11.554687499999993  2.303299492385787 9.749999999999995  2.303299492385787 7.804687500000001  C 2.303299492385787 5.742187499999998  2.815143824027073 3.8320312500000018  3.8388324873096447 2.0742187500000018  C 6.653976311336717 5.566406249999998  10.079843485617598 8.361328125  14.116434010152284 10.458984375  C 18.153024534686974 12.556640625  22.4746192893401 13.72265625  27.081218274111674 13.957031250000002  C 26.895093062605756 13.066406249999996  26.802030456852794 12.199218749999996  26.802030456852794 11.355468749999998  C 26.802030456852794 8.214843749999993  27.90133248730964 5.537109375  30.099936548223347 3.322265625000001  C 32.298540609137056 1.107421875000002  34.95664128595601 0  38.0742385786802 0  C 41.331429780033844 0  44.07677664974619 1.195312500000002  46.31027918781726 3.585937500000001  C 48.84623519458545 3.093749999999999  51.23096446700507 2.179687500000001  53.46446700507614 0.843750000000002  C 52.603637901861255 3.539062499999994  50.9517766497462 5.625  48.50888324873096 7.101562500000001  Z " fill-rule="nonzero" fill="#ffffff" stroke="none" transform="matrix(1 0 0 1 208 2363 )" />
  </g>
</svg>