<?xml version="1.0" encoding="utf-8"?>
<svg version="1.1" xmlns:xlink="http://www.w3.org/1999/xlink" width="83px" height="55px" xmlns="http://www.w3.org/2000/svg">
  <g transform="matrix(1 0 0 1 -76 -2582 )">
    <path d="M 69.77907986111111 24.241536458333336  L 71.14800347222223 30.86588541666667  L 66.17664930555556 30.86588541666667  C 66.5128761574074 29.982638888888886  67.30541087962963 27.84613715277777  68.55425347222223 24.456380208333336  L 68.66232638888889 24.134114583333336  C 68.75839120370371 23.89539930555555  68.87847222222223 23.585069444444443  69.02256944444444 23.203125  C 69.16666666666667 22.82118055555555  69.27473958333333 22.510850694444443  69.34678819444444 22.272135416666664  L 69.77907986111111 24.241536458333336  Z M 4.611111111111111 16.507161458333336  C 12.080150462962965 18.39301215277778  16.91941550925926 22.403428819444443  19.12890625 28.53841145833333  L 17.03949652777778 17.975260416666664  C 16.775318287037038 16.686197916666664  15.87471064814815 16.041666666666664  14.33767361111111 16.041666666666664  L 4.683159722222222 16.041666666666664  L 4.611111111111111 16.507161458333336  Z M 31.91753472222222 16.041666666666664  L 25.577256944444443 16.041666666666664  L 19.741319444444443 31.72526041666667  L 19.12890625 28.53841145833333  C 18.504484953703706 26.867404513888886  17.483796296296298 25.32172309027778  16.06684027777778 23.9013671875  C 14.649884259259261 22.48101128472222  13.07682291666667 21.42469618055555  11.34765625 20.732421875  L 16.2109375 38.994140625  L 22.51519097222222 38.994140625  L 31.91753472222222 16.041666666666664  Z M 34.33116319444444 16.041666666666664  L 30.584635416666664 39.02994791666667  L 36.564670138888886 39.02994791666667  L 40.311197916666664 16.041666666666664  L 34.33116319444444 16.041666666666664  Z M 57.42274305555556 21.591796875  L 58.25130208333333 16.614583333333336  C 56.594184027777786 15.970052083333336  54.80497685185186 15.647786458333336  52.88368055555556 15.647786458333336  C 49.9296875 15.647786458333336  47.51605902777777 16.35199652777777  45.642795138888886 17.760416666666664  C 43.76953125 19.16883680555555  42.8208912037037 20.99500868055555  42.796875 23.238932291666664  C 42.772858796296305 25.673828125  44.51403356481482 27.75065104166667  48.02039930555556 29.46940104166667  C 49.17317708333333 30.018446180555557  49.97771990740741 30.5078125  50.43402777777777 30.9375  C 50.890335648148145 31.3671875  51.11848958333333 31.83268229166667  51.11848958333333 32.333984375  C 51.11848958333333 33.05013020833333  50.75824652777777 33.599175347222214  50.03776041666667 33.98111979166667  C 49.31727430555556 34.3630642361111  48.48871527777777 34.55403645833333  47.55208333333333 34.55403645833333  C 45.48668981481482 34.55403645833333  43.61342592592593 34.16015625  41.93229166666667 33.37239583333333  L 41.13975694444444 32.978515625  L 40.311197916666664 38.134765625  C 42.08839699074075 38.94639756944444  44.30989583333333 39.35221354166667  46.97569444444444 39.35221354166667  C 50.09780092592593 39.37608506944444  52.601490162037045 38.671875  54.48676215277777 37.23958333333333  C 56.37203414351852 35.80729166666667  57.33868634259259 33.89756944444444  57.38671875 31.51041666666667  C 57.38671875000001 28.980034722222214  55.70558449074075 26.90321180555555  52.34331597222223 25.279947916666664  C 51.16652199074075 24.68315972222222  50.31394675925926 24.181857638888886  49.78559027777777 23.776041666666664  C 49.257233796296305 23.370225694444443  48.99305555555556 22.916666666666664  48.99305555555556 22.415364583333336  C 48.99305555555556 21.89019097222222  49.28725405092593 21.430664062499993  49.87565104166667 21.036783854166664  C 50.46404803240741 20.64290364583333  51.31061921296296 20.445963541666664  52.41536458333333 20.445963541666664  C 54.09649884259259 20.422092013888886  55.58550347222223 20.70855034722222  56.88237847222223 21.305338541666664  L 57.42274305555556 21.591796875  Z M 78.38888888888889 39.02994791666667  L 73.56163194444444 16.041666666666664  L 68.95052083333333 16.041666666666664  C 67.3894675925926 16.041666666666664  66.34476273148148 16.686197916666664  65.81640625 17.975260416666664  L 56.95442708333333 39.02994791666667  L 63.22265625 39.02994791666667  L 64.48350694444444 35.59244791666667  L 72.12065972222223 35.59244791666667  C 72.24074074074075 36.11762152777777  72.48090277777779 37.2634548611111  72.84114583333333 39.02994791666667  L 78.38888888888889 39.02994791666667  Z M 81.63107638888889 1.3606770833333353  C 82.54369212962963 2.267795138888886  83 3.342013888888886  83 4.583333333333336  L 83 50.416666666666664  C 83 51.657986111111114  82.54369212962963 52.732204861111114  81.63107638888889 53.639322916666664  C 80.71846064814815 54.54644097222222  79.6377314814815 55  78.38888888888889 55  L 4.611111111111111 55  C 3.362268518518519 55  2.281539351851852 54.54644097222222  1.3689236111111112 53.639322916666664  C 0.4563078703703704 52.732204861111114  0 51.657986111111114  0 50.416666666666664  L 0 4.583333333333336  C 0 3.342013888888886  0.4563078703703704 2.267795138888886  1.3689236111111112 1.3606770833333353  C 2.281539351851852 0.45355902777777235  3.362268518518519 0  4.611111111111111 0  L 78.38888888888889 0  C 79.6377314814815 0  80.71846064814815 0.45355902777777235  81.63107638888889 1.3606770833333353  Z " fill-rule="nonzero" fill="#ffffff" stroke="none" transform="matrix(1 0 0 1 76 2582 )" />
  </g>
</svg>