<?xml version="1.0" encoding="utf-8"?>
<svg version="1.1" xmlns:xlink="http://www.w3.org/1999/xlink" width="83px" height="55px" xmlns="http://www.w3.org/2000/svg">
  <g transform="matrix(1 0 0 1 -197 -2582 )">
    <path d="M 33.91688368055556 17.115885416666664  C 35.05765335648148 13.344184027777771  37.18909143518519 10.181206597222221  40.311197916666664 7.626953125  C 37.237123842592595 5.597873263888886  33.86284722222222 4.583333333333336  30.188368055555557 4.583333333333336  C 27.714699074074073 4.583333333333336  25.343098958333336 5.066731770833336  23.073567708333336 6.033528645833336  C 20.804036458333336 7.000325520833336  18.85271990740741 8.295355902777771  17.219618055555557 9.918619791666664  C 15.586516203703704 11.54188368055555  14.283637152777779 13.47547743055555  13.310980902777779 15.719401041666664  C 12.338324652777779 17.96332465277777  11.851996527777779 20.314670138888886  11.851996527777779 22.7734375  C 11.851996527777779 25.256076388888886  12.338324652777779 27.619357638888886  13.310980902777779 29.86328125  C 14.283637152777779 32.107204861111114  15.586516203703704 34.0407986111111  17.219618055555557 35.6640625  C 18.85271990740741 37.287326388888886  20.79803240740741 38.58235677083333  23.055555555555557 39.54915364583333  C 25.313078703703706 40.51595052083333  27.690682870370374 40.99934895833333  30.188368055555557 40.99934895833333  C 33.86284722222222 40.99934895833333  37.237123842592595 39.98480902777777  40.311197916666664 37.95572916666667  C 37.16507523148148 35.40147569444444  35.027633101851855 32.23253038194444  33.89887152777778 28.44889322916667  C 32.7701099537037 24.665256076388886  32.77611400462963 20.88758680555555  33.91688368055556 17.115885416666664  Z M 47.69618055555556 17.420247395833336  C 46.59143518518519 13.827582465277771  44.52604166666667 10.849609375  41.5 8.486328125  C 38.473958333333336 10.849609375  36.40856481481482 13.827582465277771  35.30381944444444 17.420247395833336  C 34.199074074074076 21.012912326388886  34.19307002314815 24.599609374999993  35.285807291666664 28.18033854166667  C 36.37854456018519 31.76106770833333  38.44994212962963 34.73307291666667  41.5 37.09635416666667  C 44.550057870370374 34.73307291666667  46.62145543981482 31.76106770833333  47.71419270833333 28.18033854166667  C 48.80692997685186 24.599609374999993  48.80092592592593 21.012912326388886  47.69618055555556 17.420247395833336  Z M 52.81163194444444 4.583333333333336  C 49.13715277777777 4.583333333333336  45.76287615740741 5.597873263888886  42.68880208333333 7.626953125  C 45.81090856481482 10.181206597222221  47.94234664351852 13.350151909722221  49.08311631944444 17.1337890625  C 50.223885995370374 20.91742621527777  50.229890046296305 24.70106336805555  49.10112847222223 28.48470052083333  C 47.972366898148145 32.268337673611114  45.83492476851852 35.425347222222214  42.68880208333333 37.95572916666667  C 45.76287615740741 39.98480902777777  49.13715277777777 40.99934895833333  52.81163194444444 40.99934895833333  C 55.30931712962963 40.99934895833333  57.686921296296305 40.51595052083333  59.94444444444444 39.54915364583333  C 62.2019675925926 38.58235677083333  64.1472800925926 37.287326388888886  65.78038194444444 35.6640625  C 67.4134837962963 34.0407986111111  68.71636284722223 32.107204861111114  69.68901909722223 29.86328125  C 70.66167534722223 27.619357638888886  71.14800347222223 25.256076388888886  71.14800347222223 22.7734375  C 71.14800347222223 20.314670138888886  70.66167534722223 17.96332465277777  69.68901909722223 15.719401041666664  C 68.71636284722223 13.47547743055555  67.4134837962963 11.54188368055555  65.78038194444444 9.918619791666664  C 64.1472800925926 8.295355902777771  62.19596354166668 7.000325520833336  59.92643229166667 6.033528645833336  C 57.65690104166668 5.066731770833336  55.28530092592594 4.583333333333336  52.81163194444444 4.583333333333336  Z M 69.3828125 34.08854166666667  L 69.3828125 33.47981770833333  L 69.63498263888889 33.47981770833333  L 69.63498263888889 33.37239583333333  L 69.02256944444444 33.37239583333333  L 69.02256944444444 33.47981770833333  L 69.27473958333333 33.47981770833333  L 69.27473958333333 34.08854166666667  L 69.3828125 34.08854166666667  Z M 70.42751736111111 33.55143229166667  L 70.42751736111111 34.08854166666667  L 70.57161458333333 34.08854166666667  L 70.57161458333333 33.37239583333333  L 70.39149305555556 33.37239583333333  L 70.17534722222223 33.837890625  L 69.95920138888889 33.37239583333333  L 69.77907986111111 33.37239583333333  L 69.77907986111111 34.08854166666667  L 69.88715277777777 34.08854166666667  L 69.88715277777777 33.55143229166667  L 70.10329861111111 34.01692708333333  L 70.24739583333333 34.01692708333333  L 70.42751736111111 33.55143229166667  Z M 70.13932291666667 49.807942708333336  L 70.13932291666667 49.84375  L 70.13932291666667 49.915364583333336  L 70.06727430555556 49.915364583333336  L 69.95920138888889 49.915364583333336  L 69.95920138888889 49.807942708333336  L 70.06727430555556 49.807942708333336  L 70.13932291666667 49.807942708333336  Z M 69.99522569444444 49.986979166666664  L 70.13932291666667 50.166015625  L 70.24739583333333 50.166015625  L 70.10329861111111 49.986979166666664  L 70.17534722222223 49.986979166666664  L 70.21137152777777 49.951171875  C 70.2353877314815 49.92730034722222  70.24739583333334 49.89149305555555  70.24739583333333 49.84375  C 70.24739583333334 49.79600694444445  70.2353877314815 49.76019965277778  70.21137152777777 49.736328125  L 70.17534722222223 49.700520833333336  L 70.06727430555556 49.700520833333336  L 69.85112847222223 49.700520833333336  L 69.85112847222223 50.166015625  L 69.95920138888889 50.166015625  L 69.95920138888889 49.986979166666664  L 69.99522569444444 49.986979166666664  Z M 25.072916666666664 48.841145833333336  C 24.80873842592593 48.5546875  24.676649305555557 48.18467881944445  24.676649305555557 47.731119791666664  C 24.676649305555557 47.277560763888886  24.80873842592593 46.907552083333336  25.072916666666664 46.62109375  C 25.33709490740741 46.334635416666664  25.697337962962965 46.19140625  26.153645833333336 46.19140625  C 26.5859375 46.19140625  26.934172453703706 46.340603298611114  27.198350694444443 46.638997395833336  C 27.462528935185187 46.93739149305555  27.594618055555557 47.301432291666664  27.594618055555557 47.731119791666664  C 27.594618055555557 48.18467881944445  27.462528935185187 48.5546875  27.198350694444443 48.841145833333336  C 26.934172453703706 49.127604166666664  26.5859375 49.270833333333336  26.153645833333336 49.270833333333336  C 25.697337962962965 49.270833333333336  25.33709490740741 49.127604166666664  25.072916666666664 48.841145833333336  Z M 40.455295138888886 47.301432291666664  C 40.57537615740741 46.53754340277778  40.99565972222222 46.155598958333336  41.71614583333333 46.155598958333336  C 42.43663194444444 46.155598958333336  42.85691550925926 46.53754340277778  42.97699652777777 47.301432291666664  L 40.455295138888886 47.301432291666664  Z M 54.93706597222223 48.841145833333336  C 54.67288773148149 48.5546875  54.540798611111114 48.18467881944445  54.540798611111114 47.731119791666664  C 54.540798611111114 47.277560763888886  54.67288773148149 46.907552083333336  54.93706597222223 46.62109375  C 55.201244212962955 46.334635416666664  55.54947916666667 46.19140625  55.98177083333333 46.19140625  C 56.41406250000001 46.19140625  56.76830150462963 46.340603298611114  57.04448784722223 46.638997395833336  C 57.32067418981482 46.93739149305555  57.458767361111114 47.301432291666664  57.458767361111114 47.731119791666664  C 57.458767361111114 48.18467881944445  57.32667824074075 48.5546875  57.0625 48.841145833333336  C 56.79832175925926 49.127604166666664  56.4380787037037 49.270833333333336  55.98177083333333 49.270833333333336  C 55.54947916666667 49.270833333333336  55.201244212962955 49.127604166666664  54.93706597222223 48.841145833333336  Z M 64.75368923611111 48.8232421875  C 64.47750289351852 48.52484809027778  64.33940972222223 48.160807291666664  64.33940972222223 47.731119791666664  C 64.33940972222223 47.301432291666664  64.47750289351852 46.93739149305555  64.75368923611111 46.638997395833336  C 65.02987557870371 46.340603298611114  65.38411458333334 46.19140625  65.81640625 46.19140625  C 66.24869791666669 46.19140625  66.6029369212963 46.340603298611114  66.87912326388889 46.638997395833336  C 67.15530960648148 46.93739149305555  67.29340277777777 47.301432291666664  67.29340277777777 47.731119791666664  C 67.29340277777777 48.18467881944445  67.15530960648148 48.5546875  66.87912326388889 48.841145833333336  C 66.6029369212963 49.127604166666664  66.24869791666669 49.270833333333336  65.81640625 49.270833333333336  C 65.38411458333334 49.270833333333336  65.02987557870371 49.12163628472222  64.75368923611111 48.8232421875  Z M 70.17534722222223 50.2734375  C 70.15133101851852 50.29730902777778  70.10329861111113 50.309244791666664  70.03125 50.309244791666664  C 69.9832175925926 50.309244791666664  69.93518518518519 50.29730902777778  69.88715277777777 50.2734375  C 69.86313657407408 50.2734375  69.82711226851852 50.24956597222222  69.77907986111111 50.201822916666664  C 69.73104745370371 50.154079861111114  69.70703125000001 50.11827256944445  69.70703125 50.094401041666664  C 69.6830150462963 50.046657986111114  69.67100694444444 49.99891493055555  69.67100694444444 49.951171875  C 69.67100694444444 49.879557291666664  69.6830150462963 49.831814236111114  69.70703125 49.807942708333336  C 69.70703125000001 49.76019965277778  69.73104745370371 49.71245659722222  69.77907986111111 49.664713541666664  L 69.81510416666667 49.62890625  C 69.86313657407408 49.62890625  69.88715277777777 49.616970486111114  69.88715277777777 49.593098958333336  C 69.93518518518519 49.56922743055555  69.9832175925926 49.557291666666664  70.03125 49.557291666666664  C 70.10329861111113 49.557291666666664  70.15133101851852 49.56922743055555  70.17534722222223 49.593098958333336  L 70.31944444444444 49.664713541666664  L 70.39149305555556 49.807942708333336  L 70.39149305555556 49.84375  C 70.41550925925927 49.89149305555555  70.42751736111111 49.92730034722222  70.42751736111111 49.951171875  L 70.39149305555556 49.986979166666664  L 70.39149305555556 50.094401041666664  C 70.39149305555556 50.094401041666664  70.37948495370371 50.10633680555555  70.35546875 50.130208333333336  L 70.31944444444444 50.201822916666664  C 70.27141203703704 50.24956597222222  70.22337962962963 50.2734375  70.17534722222223 50.2734375  Z M 21.57855902777778 47.48046875  L 21.57855902777778 50.166015625  L 22.659288194444443 50.166015625  L 22.659288194444443 47.122395833333336  C 22.659288194444443 46.549479166666664  22.485170717592595 46.08995225694445  22.136935763888886 45.743815104166664  C 21.788700810185187 45.397677951388886  21.314380787037038 45.212673611111114  20.713975694444443 45.188802083333336  C 19.945457175925927 45.188802083333336  19.38107638888889 45.475260416666664  19.020833333333332 46.048177083333336  C 18.684606481481485 45.475260416666664  18.14424189814815 45.188802083333336  17.399739583333332 45.188802083333336  C 16.823350694444446 45.188802083333336  16.355034722222225 45.427517361111114  15.994791666666668 45.904947916666664  L 15.994791666666668 45.33203125  L 14.9140625 45.33203125  L 14.9140625 50.166015625  L 15.994791666666668 50.166015625  L 15.994791666666668 47.48046875  C 15.99479166666667 46.62109375  16.391059027777782 46.19140625  17.18359375 46.19140625  C 17.904079861111114 46.19140625  18.26432291666667 46.62109375  18.264322916666668 47.48046875  L 18.264322916666668 50.166015625  L 19.30902777777778 50.166015625  L 19.30902777777778 47.48046875  C 19.30902777777778 46.62109375  19.70529513888889 46.19140625  20.49782986111111 46.19140625  C 21.21831597222222 46.19140625  21.57855902777778 46.62109375  21.57855902777778 47.48046875  Z M 27.55859375 49.557291666666664  L 27.55859375 50.166015625  L 28.603298611111114 50.166015625  L 28.603298611111114 47.731119791666664  L 28.603298611111114 45.33203125  L 27.55859375 45.33203125  L 27.55859375 45.904947916666664  C 27.150318287037038 45.427517361111114  26.63396990740741 45.188802083333336  26.009548611111114 45.188802083333336  C 25.313078703703706 45.188802083333336  24.736689814814817 45.427517361111114  24.280381944444443 45.904947916666664  C 23.824074074074073 46.38237847222222  23.595920138888886 46.99110243055555  23.595920138888886 47.731119791666664  C 23.595920138888886 48.47113715277778  23.824074074074073 49.079861111111114  24.280381944444443 49.557291666666664  C 24.736689814814817 50.03472222222222  25.313078703703706 50.2734375  26.009548611111114 50.2734375  C 26.682002314814817 50.2734375  27.198350694444443 50.03472222222222  27.55859375 49.557291666666664  Z M 33.37651909722222 49.84375  C 33.772786458333336 49.557291666666664  33.970920138888886 49.17534722222222  33.970920138888886 48.697916666666664  C 33.970920138888886 47.88628472222222  33.406539351851855 47.408854166666664  32.27777777777778 47.265625  L 31.7734375 47.194010416666664  C 31.221064814814817 47.09852430555555  30.94487847222222 46.931423611111114  30.94487847222222 46.692708333333336  C 30.94487847222222 46.334635416666664  31.245081018518523 46.155598958333336  31.845486111111114 46.155598958333336  C 32.3978587962963 46.155598958333336  32.91420717592593 46.286892361111114  33.39453125 46.549479166666664  L 33.826822916666664 45.690104166666664  C 33.29846643518519 45.35590277777778  32.638020833333336 45.188802083333336  31.845486111111114 45.188802083333336  C 31.221064814814817 45.188802083333336  30.728732638888893 45.33203125  30.368489583333336 45.618489583333336  C 30.008246527777782 45.904947916666664  29.828125000000004 46.286892361111114  29.828125 46.764322916666664  C 29.828125000000004 47.552083333333336  30.392505787037038 48.017578125  31.521267361111114 48.160807291666664  L 31.989583333333336 48.232421875  C 32.56597222222223 48.327907986111114  32.85416666666667 48.49500868055555  32.854166666666664 48.733723958333336  C 32.85416666666667 49.13953993055555  32.48191550925926 49.342447916666664  31.737413194444443 49.342447916666664  C 31.13700810185185 49.342447916666664  30.596643518518523 49.17534722222222  30.116319444444443 48.841145833333336  L 29.64800347222222 49.664713541666664  C 30.248408564814817 50.070529513888886  30.94487847222222 50.2734375  31.737413194444443 50.2734375  C 32.433883101851855 50.2734375  32.980251736111114 50.130208333333336  33.37651909722222 49.84375  Z M 37.357204861111114 50.2734375  C 37.861545138888886 50.2734375  38.29383680555556 50.154079861111114  38.654079861111114 49.915364583333336  L 38.365885416666664 49.020182291666664  C 38.05367476851852 49.187282986111114  37.741464120370374 49.270833333333336  37.42925347222222 49.270833333333336  C 36.972945601851855 49.270833333333336  36.74479166666667 49.00824652777778  36.744791666666664 48.483072916666664  L 36.744791666666664 46.298828125  L 38.473958333333336 46.298828125  L 38.473958333333336 45.33203125  L 36.744791666666664 45.33203125  L 36.744791666666664 43.863932291666664  L 35.6640625 43.863932291666664  L 35.6640625 45.33203125  L 34.65538194444444 45.33203125  L 34.65538194444444 46.298828125  L 35.6640625 46.298828125  L 35.6640625 48.483072916666664  C 35.66406250000001 49.67664930555555  36.22844328703704 50.2734375  37.357204861111114 50.2734375  Z M 43.40928819444444 45.887044270833336  C 42.97699652777777 45.421549479166664  42.42462384259259 45.188802083333336  41.752170138888886 45.188802083333336  C 41.05570023148148 45.188802083333336  40.479311342592595 45.427517361111114  40.02300347222222 45.904947916666664  C 39.566695601851855 46.38237847222222  39.338541666666664 46.99110243055555  39.338541666666664 47.731119791666664  C 39.338541666666664 48.49500868055555  39.57269965277778 49.109700520833336  40.041015625 49.5751953125  C 40.50933159722222 50.040690104166664  41.103732638888886 50.2734375  41.82421875 50.2734375  C 42.61675347222223 50.2734375  43.277199074074076 50.046657986111114  43.80555555555556 49.593098958333336  L 43.30121527777777 48.805338541666664  C 42.868923611111114 49.163411458333336  42.400607638888886 49.342447916666664  41.896267361111114 49.342447916666664  C 41.07971643518519 49.342447916666664  40.58738425925926 48.948567708333336  40.419270833333336 48.160807291666664  L 44.05772569444444 48.160807291666664  L 44.05772569444444 47.731119791666664  C 44.05772569444444 46.96723090277778  43.841579861111114 46.3525390625  43.40928819444444 45.887044270833336  Z M 48.236545138888886 45.33203125  C 48.02039930555556 45.236545138888886  47.76822916666667 45.188802083333336  47.48003472222223 45.188802083333336  C 46.927662037037045 45.188802083333336  46.50737847222223 45.427517361111114  46.21918402777777 45.904947916666664  L 46.21918402777777 45.33203125  L 45.138454861111114 45.33203125  L 45.138454861111114 50.166015625  L 46.21918402777777 50.166015625  L 46.21918402777777 47.444661458333336  C 46.21918402777777 46.609157986111114  46.56741898148149 46.19140625  47.263888888888886 46.19140625  C 47.50405092592593 46.19140625  47.72019675925926 46.23914930555555  47.912326388888886 46.334635416666664  L 48.236545138888886 45.33203125  Z M 49.26323784722223 45.904947916666664  C 48.794921875 46.38237847222222  48.560763888888886 46.99110243055555  48.560763888888886 47.731119791666664  C 48.560763888888886 48.47113715277778  48.794921875 49.079861111111114  49.26323784722223 49.557291666666664  C 49.73155381944444 50.03472222222222  50.36197916666667 50.2734375  51.154513888888886 50.2734375  C 51.850983796296305 50.2734375  52.42737268518519 50.08246527777778  52.88368055555556 49.700520833333336  L 52.37934027777777 48.841145833333336  C 51.947048611111114 49.15147569444445  51.526765046296305 49.294704861111114  51.11848958333333 49.270833333333336  C 50.68619791666667 49.270833333333336  50.331958912037045 49.127604166666664  50.05577256944444 48.841145833333336  C 49.77958622685186 48.5546875  49.64149305555556 48.18467881944445  49.64149305555556 47.731119791666664  C 49.64149305555556 47.277560763888886  49.77958622685186 46.907552083333336  50.05577256944444 46.62109375  C 50.331958912037045 46.334635416666664  50.68619791666667 46.19140625  51.11848958333333 46.19140625  C 51.5747974537037 46.19140625  51.99508101851852 46.334635416666664  52.37934027777777 46.62109375  L 52.88368055555556 45.76171875  C 52.40335648148149 45.37977430555555  51.82696759259259 45.188802083333336  51.154513888888886 45.188802083333336  C 50.36197916666667 45.188802083333336  49.73155381944444 45.427517361111114  49.26323784722223 45.904947916666664  Z M 57.38671875 49.557291666666664  L 57.38671875 50.166015625  L 58.46744791666667 50.166015625  L 58.46744791666667 47.731119791666664  L 58.46744791666667 45.33203125  L 57.38671875 45.33203125  L 57.38671875 45.904947916666664  C 57.02647569444445 45.427517361111114  56.52213541666668 45.188802083333336  55.87369791666667 45.188802083333336  C 55.17722800925926 45.188802083333336  54.59483506944444 45.427517361111114  54.12651909722223 45.904947916666664  C 53.658203125 46.38237847222222  53.424045138888886 46.99110243055555  53.424045138888886 47.731119791666664  C 53.424045138888886 48.47113715277778  53.658203125 49.079861111111114  54.12651909722223 49.557291666666664  C 54.59483506944444 50.03472222222222  55.17722800925926 50.2734375  55.87369791666667 50.2734375  C 56.546151620370374 50.2734375  57.050491898148145 50.03472222222222  57.38671875 49.557291666666664  Z M 62.93446180555556 45.33203125  C 62.74233217592593 45.236545138888886  62.490162037037045 45.188802083333336  62.177951388888886 45.188802083333336  C 61.6255787037037 45.188802083333336  61.205295138888886 45.427517361111114  60.91710069444444 45.904947916666664  L 60.91710069444444 45.33203125  L 59.87239583333333 45.33203125  L 59.87239583333333 50.166015625  L 60.91710069444444 50.166015625  L 60.91710069444444 47.444661458333336  C 60.91710069444444 46.609157986111114  61.265335648148145 46.19140625  61.96180555555556 46.19140625  C 62.20196759259259 46.19140625  62.41811342592593 46.23914930555555  62.61024305555556 46.334635416666664  L 62.93446180555556 45.33203125  Z M 67.22135416666667 49.557291666666664  L 67.22135416666667 50.166015625  L 68.26605902777777 50.166015625  L 68.26605902777777 47.731119791666664  L 68.26605902777777 43.362630208333336  L 67.22135416666667 43.362630208333336  L 67.22135416666667 45.904947916666664  C 66.86111111111113 45.427517361111114  66.3447627314815 45.188802083333336  65.67230902777777 45.188802083333336  C 64.99985532407408 45.188802083333336  64.42947048611111 45.43348524305555  63.961154513888886 45.9228515625  C 63.49283854166667 46.41221788194445  63.25868055555556 47.014973958333336  63.25868055555556 47.731119791666664  C 63.25868055555556 48.447265625  63.49283854166667 49.050021701388886  63.961154513888886 49.539388020833336  C 64.42947048611111 50.02875434027778  64.99985532407408 50.2734375  65.67230902777777 50.2734375  C 66.36877893518519 50.2734375  66.88512731481482 50.03472222222222  67.22135416666667 49.557291666666664  Z M 70.13932291666667 49.4677734375  C 70.09129050925927 49.455837673611114  70.05526620370371 49.449869791666664  70.03125 49.449869791666664  L 69.95920138888889 49.485677083333336  L 69.85112847222223 49.485677083333336  C 69.80309606481482 49.509548611111114  69.7550636574074 49.54535590277778  69.70703125 49.593098958333336  C 69.6349826388889 49.616970486111114  69.59895833333334 49.664713541666664  69.59895833333333 49.736328125  C 69.57494212962963 49.78407118055555  69.56293402777777 49.855685763888886  69.56293402777777 49.951171875  C 69.56293402777777 50.022786458333336  69.57494212962963 50.08246527777778  69.59895833333333 50.130208333333336  C 69.59895833333334 50.177951388888886  69.6349826388889 50.22569444444445  69.70703125 50.2734375  C 69.7550636574074 50.32118055555555  69.80309606481482 50.35698784722222  69.85112847222223 50.380859375  C 69.89916087962963 50.40473090277778  69.9592013888889 50.416666666666664  70.03125 50.416666666666664  C 70.12731481481482 50.416666666666664  70.19936342592592 50.40473090277778  70.24739583333333 50.380859375  C 70.24739583333334 50.35698784722222  70.27141203703704 50.33311631944445  70.31944444444444 50.309244791666664  L 70.39149305555556 50.2734375  C 70.41550925925927 50.24956597222222  70.45153356481482 50.201822916666664  70.49956597222223 50.130208333333336  C 70.52358217592592 50.08246527777778  70.53559027777777 50.022786458333336  70.53559027777777 49.951171875  C 70.53559027777777 49.855685763888886  70.52358217592592 49.78407118055555  70.49956597222223 49.736328125  C 70.47554976851852 49.71245659722222  70.43952546296296 49.664713541666664  70.39149305555556 49.593098958333336  C 70.39149305555556 49.56922743055555  70.36747685185186 49.54535590277778  70.31944444444444 49.521484375  L 70.24739583333333 49.485677083333336  C 70.22337962962963 49.485677083333336  70.18735532407408 49.479709201388886  70.13932291666667 49.4677734375  Z M 81.63107638888889 1.3606770833333353  C 82.54369212962963 2.267795138888886  83 3.342013888888886  83 4.583333333333336  L 83 50.416666666666664  C 83 51.657986111111114  82.54369212962963 52.732204861111114  81.63107638888889 53.639322916666664  C 80.71846064814815 54.54644097222222  79.6377314814815 55  78.38888888888889 55  L 4.611111111111111 55  C 3.362268518518519 55  2.281539351851852 54.54644097222222  1.3689236111111112 53.639322916666664  C 0.4563078703703704 52.732204861111114  0 51.657986111111114  0 50.416666666666664  L 0 4.583333333333336  C 0 3.342013888888886  0.4563078703703704 2.267795138888886  1.3689236111111112 1.3606770833333353  C 2.281539351851852 0.45355902777777235  3.362268518518519 0  4.611111111111111 0  L 78.38888888888889 0  C 79.6377314814815 0  80.71846064814815 0.45355902777777235  81.63107638888889 1.3606770833333353  Z " fill-rule="nonzero" fill="#ffffff" stroke="none" transform="matrix(1 0 0 1 197 2582 )" />
  </g>
</svg>